<svg xmlns="http://www.w3.org/2000/svg" width="140" height="50" viewBox="0 0 140 50">
    <path fill="#B9B9B9" fill-rule="nonzero" d="M5.138 41.267v-8.406h2.328c2.582 0 4.216 1.624 4.216 4.215 0 2.498-1.634 4.191-4.077 4.191H5.138zm2.035-7.323h-.57c-.14 0-.162 0-.278-.023.023.116.023.14.023.278v5.73c0 .14 0 .163-.023.28.116-.024.139-.024.278-.024h.562c.948 0 1.588-.194 2.166-.634.74-.557 1.094-1.369 1.094-2.49 0-1.122-.477-2.08-1.318-2.637-.462-.302-1.163-.48-1.934-.48zm9.742 5.375l.886.595c-.601 1.02-1.48 1.562-2.55 1.562-.733 0-1.427-.278-1.905-.773-.493-.495-.732-1.152-.732-2.034 0-1.732 1.033-2.87 2.605-2.87.887 0 1.611.364 2.066 1.022.339.502.455.974.493 1.995h-3.692c-.146 0-.177 0-.3-.039.03.58.13.89.431 1.214a1.42 1.42 0 0 0 1.072.465c.655 0 1.187-.38 1.626-1.137zm-2.42-1.377h1.541c.262 0 .316 0 .555.039-.162-.805-.616-1.222-1.333-1.222-.725 0-1.21.425-1.395 1.222.27-.039.316-.039.632-.039zm3.977 2.475l.832-.604c.385.464.678.642 1.056.642.424 0 .701-.24.701-.603 0-.34-.2-.534-.917-.835-1.04-.441-1.395-.843-1.395-1.616 0-.92.74-1.617 1.734-1.617.632 0 1.04.21 1.573.805l-.794.634c-.3-.317-.524-.44-.779-.44-.323 0-.578.231-.578.533 0 .278.193.456.67.657 1.273.526 1.65.92 1.65 1.74 0 1.06-.747 1.755-1.865 1.755-.794 0-1.41-.348-1.888-1.051zm5.025.85v-5.274h1.133v5.274h-1.133zm.57-7.803c.401 0 .733.325.733.735s-.324.735-.733.735a.733.733 0 0 1-.732-.735c0-.41.332-.735.732-.735zm6.128 7.053l-.054-.008c-.255.356-.409.534-.632.657a2.156 2.156 0 0 1-1.056.263c-1.465 0-2.52-1.175-2.52-2.791 0-1.624 1.07-2.8 2.543-2.8.725 0 1.24.287 1.657.944l.054-.015c-.062-.225-.085-.34-.085-.465v-.317h1.148v5.352c0 .162-.023.495-.038.719-.077.619-.324 1.067-.817 1.423-.462.332-1.118.518-1.773.518-.932 0-1.75-.364-2.142-.943-.2-.302-.278-.58-.301-1.075h1.187c.116.696.509 1.013 1.287 1.013.964 0 1.457-.55 1.457-1.632v-.363c0-.163.008-.263.085-.48zm-1.534-3.711c-.948 0-1.565.734-1.565 1.825 0 1.059.632 1.801 1.526 1.801.94 0 1.557-.665 1.557-1.701 0-.72-.139-1.168-.478-1.493a1.448 1.448 0 0 0-1.04-.432zm4.308 4.461h-.008v-5.274h1.133v.317c0 .14-.007.24-.084.441l.053.023c.44-.657.895-.92 1.534-.92 1.156 0 1.85.766 1.85 2.057v3.356h-1.133v-3.03c0-.805-.378-1.3-1.017-1.3-.733 0-1.195.634-1.195 1.655v2.675H32.97zm6.667-1.306c.416 0 .747.332.747.742a.735.735 0 0 1-.755.742.73.73 0 0 1-.732-.742c0-.418.324-.742.74-.742zm4.563 1.306l1.85-8.924 2.304 5.212c.316.75.385.928.64 1.632h.038c.254-.711.332-.874.655-1.632l2.328-5.22 1.788 8.925h-1.218l-.64-3.349c-.2-1.083-.239-1.322-.339-2.32h-.054c-.339.951-.431 1.176-.87 2.173l-1.696 3.813-1.673-3.813c-.44-.997-.547-1.237-.87-2.196l-.054.015c-.1.998-.14 1.253-.34 2.336l-.632 3.348H44.2zm14.559-.773l-.031-.008a2.03 2.03 0 0 1-1.727.936c-1.426 0-2.481-1.199-2.481-2.8 0-1.608 1.079-2.791 2.528-2.791.74 0 1.31.325 1.672.943l.039-.015c-.062-.232-.078-.333-.078-.457v-.317h1.134v5.275H58.68v-.325c0-.124.016-.225.078-.441zm-1.55-3.673c-.909 0-1.533.734-1.533 1.825 0 1.083.6 1.802 1.534 1.802.94 0 1.533-.68 1.533-1.794 0-.72-.115-1.075-.454-1.4a1.499 1.499 0 0 0-1.08-.433zm7.947 3.673l-.039-.008c-.424.619-1.017.936-1.734.936-1.426 0-2.482-1.199-2.482-2.8 0-1.608 1.08-2.791 2.528-2.791.74 0 1.241.286 1.673.943l.054-.015c-.085-.944-.085-1.183-.085-2.22v-2.211h1.148v8.932H65.07v-.325c0-.124.023-.225.085-.441zm-1.557-3.673c-.91 0-1.534.734-1.542 1.825 0 1.067.624 1.802 1.534 1.802.948 0 1.549-.712 1.549-1.794 0-.665-.139-1.083-.462-1.4a1.498 1.498 0 0 0-1.08-.433zm8.239 2.498l.878.595c-.6 1.02-1.48 1.562-2.55 1.562-.733 0-1.427-.278-1.904-.773-.494-.495-.733-1.152-.733-2.034 0-1.732 1.033-2.87 2.605-2.87.887 0 1.611.364 2.066 1.022.34.502.455.974.493 1.995h-3.684c-.146 0-.177 0-.3-.039.03.58.13.89.431 1.214a1.42 1.42 0 0 0 1.072.465c.655 0 1.187-.38 1.626-1.137zm-2.42-1.377h1.541c.262 0 .316 0 .555.039-.162-.805-.617-1.222-1.333-1.222-.725 0-1.21.425-1.395 1.222.27-.039.316-.039.632-.039zm7.522 3.325v-5.274h1.133v5.274H76.94zm.563-7.803c.408 0 .732.325.732.735a.733.733 0 1 1-1.465 0c0-.41.332-.735.733-.735zm2.343 7.803h-.008v-5.274h1.133v.317c0 .14-.008.24-.085.441l.054.023c.44-.657.894-.92 1.534-.92 1.156 0 1.85.766 1.85 2.057v3.356H83.19v-3.03c0-.805-.378-1.3-1.018-1.3-.732 0-1.194.634-1.194 1.655v2.675h-1.133zm13.58-4.323v-.007h3.383c-.038.974-.1 1.438-.254 1.933-.493 1.539-2.02 2.59-3.753 2.59-1.164 0-2.343-.494-3.137-1.314-.779-.781-1.133-1.74-1.133-3.031 0-2.483 1.927-4.455 4.354-4.455.802 0 1.634.24 2.29.642.315.201.64.503 1.132 1.037l-.855.835c-.933-.998-1.572-1.338-2.567-1.338-1.75 0-3.044 1.384-3.044 3.279 0 1.879 1.225 3.17 2.998 3.17 1.434 0 2.443-.881 2.628-2.296-.177.038-.231.038-.431.038h-1.611v-1.083zm8.555 2.375l.879.595c-.602 1.02-1.48 1.562-2.551 1.562-.733 0-1.427-.278-1.904-.773-.494-.495-.732-1.152-.732-2.034 0-1.732 1.032-2.87 2.605-2.87.886 0 1.61.364 2.065 1.022.34.502.455.974.493 1.995h-3.684c-.146 0-.177 0-.3-.039.03.58.13.89.431 1.214.278.302.64.465 1.072.465.655 0 1.187-.38 1.626-1.137zm-2.42-1.377h1.541c.262 0 .316 0 .555.039-.162-.805-.616-1.222-1.333-1.222-.725 0-1.21.425-1.395 1.222.27-.039.316-.039.632-.039zm4.616 3.325v-5.281h1.126v.317c0 .116-.023.216-.085.456l.054.023c.362-.642.802-.936 1.418-.936.355 0 .632.078.971.256l-.578 1.02c-.316-.139-.455-.178-.678-.178-.694 0-1.094.62-1.094 1.67v2.653h-1.134zm4.44 0h-.008v-5.274h1.133v.317c0 .124-.023.225-.084.441l.054.023c.416-.657.816-.92 1.394-.92.617 0 1.033.24 1.395.82.44-.565.91-.82 1.55-.82s1.233.294 1.472.735c.138.247.215.642.215 1.082v3.596h-1.133v-3.03c0-.844-.277-1.277-.817-1.277-.377 0-.747.255-.909.634-.085.201-.139.58-.139.998v2.675h-1.133v-3.03c0-.828-.277-1.262-.817-1.262-.362 0-.716.24-.878.604-.108.232-.162.572-.162 1.013v2.675h-1.133zm12.64-.773l-.031-.008a2.03 2.03 0 0 1-1.727.936c-1.425 0-2.481-1.199-2.481-2.8 0-1.608 1.079-2.791 2.528-2.791.74 0 1.31.325 1.672.943l.039-.015c-.062-.232-.077-.333-.077-.457v-.317h1.132v5.275h-1.132v-.325c0-.124.015-.225.077-.441zm-1.55-3.673c-.909 0-1.533.734-1.533 1.825 0 1.083.6 1.802 1.533 1.802.941 0 1.534-.68 1.534-1.794 0-.72-.115-1.075-.454-1.4a1.5 1.5 0 0 0-1.08-.433zm4.34 4.446h-.008v-5.274h1.133v.317c0 .14-.008.24-.085.441l.054.023c.44-.657.894-.92 1.534-.92 1.156 0 1.85.766 1.85 2.057v3.356h-1.133v-3.03c0-.805-.378-1.3-1.018-1.3-.732 0-1.194.634-1.194 1.655v2.675h-1.133zm5.079-5.282v-.007h1.364l.94 1.77c.347.62.409.759.671 1.339h.023c.239-.588.285-.704.601-1.362l.84-1.74h1.272l-3.9 7.819h-1.233l1.826-3.588-2.404-4.23zm6.096 3.976a.743.743 0 1 1-.007 1.484.73.73 0 0 1-.733-.742c0-.418.324-.742.74-.742zM27.821 6.089h7.144l-5.603 13.943c-.162.387-.223.51-.478.866l.062.093c.385-.031.478-.062.609-.062H33.4c.285-.55.385-.673.67-1.16l8.771-13.68h8.17l1.41 13.912.093 1.578.061.672h.255c.285-1.16.447-1.64.74-2.413l5.441-13.75h9.989l-.833 8.708-.061.897-.093 1.06.224.03c.578-1.059.832-1.476 1.187-2.056l5.634-8.638h15.437l1.249 5.398c.13.51.192.804.254 1.477h.162c.447-.673.609-.897 1.187-1.54L98.28 6.09h8.293l-12.972 12.79-2.882 7.231h-6.79l3.36-8.545-1.665-6.713c-.092-.448-.162-.742-.254-1.577l-.131.03-.64 1.803-.547 1.477-5.41 13.525h-6.528L76.6 15.09c.478-1.19.547-1.314.994-2.119l-.416-.092-.478.742-.578.835L67.76 26.11h-5.858l.933-11.468c.03-.55.062-.897.162-1.733h-.324c-.416 1.284-.609 1.833-.963 2.7L57.67 26.117H46.72l-.223-3.217-.062-.967h-6.628L37.47 26.11H19.782L27.82 6.09zm18.096 4.888l-.192-.031c-.162.325-.193.417-.386.742l-.223.418-2.112 3.82-.447.804-.386.704h4.07l-.324-6.457z"/>
</svg>
