<svg xmlns="http://www.w3.org/2000/svg" width="40" height="40" viewBox="0 0 40 40">
    <g fill="none" fill-rule="evenodd">
        <path fill="#FFF" d="M-1232-12H208v1543h-1440z"/>
        <path fill="#3C3D41" d="M28.75 16.34c-.24-.361-.72-.602-1.2-.602H16.397l-.48-2.412c-.12-.723-.96-1.326-1.679-1.326H11v1.93h3.118l1.799 8.68c.12.723.96 1.326 1.679 1.326h7.555c.72 0 1.56-.482 1.8-1.206l1.918-5.063c.24-.483.12-.965-.12-1.327zm-3.479 5.788h-7.435l-.96-4.34h9.954l-1.559 4.34zm-6.955 3.014a1.9 1.9 0 0 0-1.92 1.929A1.9 1.9 0 0 0 18.317 29a1.9 1.9 0 0 0 1.918-1.93 1.9 1.9 0 0 0-1.918-1.928zm6.716 0a1.9 1.9 0 0 0-1.92 1.929A1.9 1.9 0 0 0 25.033 29a1.9 1.9 0 0 0 1.918-1.93 1.9 1.9 0 0 0-1.918-1.928z"/>
    </g>
</svg>
