<svg xmlns="http://www.w3.org/2000/svg" width="66" height="66" viewBox="0 0 66 66">
    <g fill="#000" fill-rule="nonzero">
        <path d="M44.978 3.318A31.834 31.834 0 0 0 33 1c-8.547 0-16.583 3.329-22.627 9.373C4.329 16.417 1 24.453 1 33a32.063 32.063 0 0 0 6.64 19.513 4.257 4.257 0 0 0 .611 5.236 4.237 4.237 0 0 0 3.006 1.242 4.237 4.237 0 0 0 3.005-1.242 4.255 4.255 0 0 0 0-6.01 4.257 4.257 0 0 0-4.738-.875A29.557 29.557 0 0 1 3.5 33C3.5 16.734 16.734 3.5 33 3.5c3.818 0 7.533.719 11.042 2.136a1.25 1.25 0 1 0 .936-2.318zM10.02 53.506l.017-.015.002-.001.03-.028a1.744 1.744 0 0 1 2.426.044 1.752 1.752 0 0 1 0 2.475 1.752 1.752 0 0 1-2.475 0 1.752 1.752 0 0 1 0-2.475zm48.342-40.02A32.062 32.062 0 0 1 65 33c0 8.547-3.328 16.584-9.373 22.627C49.584 61.671 41.547 65 33 65c-4.12 0-8.13-.772-11.921-2.295a1.25 1.25 0 1 1 .932-2.32A29.344 29.344 0 0 0 33 62.5c16.266 0 29.5-13.234 29.5-29.5a29.557 29.557 0 0 0-6.024-17.864 4.263 4.263 0 0 1-4.738-.874 4.255 4.255 0 0 1 0-6.01 4.255 4.255 0 0 1 6.01 0 4.257 4.257 0 0 1 .613 5.235zm-2.38-.992a1.752 1.752 0 0 0 0-2.475 1.745 1.745 0 0 0-1.238-.512 1.752 1.752 0 0 0-1.237 2.987 1.75 1.75 0 0 0 2.416.053l.04-.037.002-.001.017-.015zm-7.023 36.782a1.25 1.25 0 0 1-.127 1.763 23.827 23.827 0 0 1-15.602 5.815c-2.03 0-4.041-.255-5.989-.76a3.745 3.745 0 0 1-2.949 1.439 3.754 3.754 0 0 1-3.75-3.75 3.754 3.754 0 0 1 3.75-3.75 3.754 3.754 0 0 1 3.748 3.683c1.69.422 3.43.638 5.19.638a21.327 21.327 0 0 0 13.965-5.204 1.25 1.25 0 0 1 1.764.126zM24.29 55.033c.69 0 1.25-.561 1.25-1.25 0-.69-.56-1.25-1.25-1.25s-1.25.56-1.25 1.25c0 .689.56 1.25 1.25 1.25zm27.65-9.295a1.256 1.256 0 0 1-.774 2.25c-.265 0-.53-.083-.756-.256a1.256 1.256 0 0 1-.226-1.76 1.256 1.256 0 0 1 1.756-.234zm-38.498-4.72a1.25 1.25 0 0 1-2.317.938l-.007-.016a1.25 1.25 0 0 1 2.318-.938l.006.016zm8.102-31.293a3.754 3.754 0 0 1 3.75 3.75 3.754 3.754 0 0 1-3.75 3.75c-.734 0-1.42-.212-1.998-.578-4.877 4.069-7.654 9.977-7.654 16.37 0 1.335.124 2.67.368 3.97a1.25 1.25 0 1 1-2.456.462 24.029 24.029 0 0 1-.412-4.432c0-3.799.867-7.43 2.579-10.794a24.057 24.057 0 0 1 6.025-7.537 3.754 3.754 0 0 1 3.548-4.96zm0 5c.689 0 1.25-.56 1.25-1.25 0-.689-.561-1.25-1.25-1.25-.69 0-1.25.561-1.25 1.25 0 .69.56 1.25 1.25 1.25zm34.928 13a3.756 3.756 0 0 1 2.913 3.654 3.754 3.754 0 0 1-3.75 3.75 3.754 3.754 0 0 1-3.75-3.75c0-1.472.853-2.748 2.09-3.361-1.654-6.872-6.733-12.595-13.403-15.04a1.25 1.25 0 1 1 .86-2.348 23.922 23.922 0 0 1 9.823 6.79 23.832 23.832 0 0 1 5.217 10.305zm-.837 4.904c.689 0 1.25-.56 1.25-1.25 0-.689-.561-1.25-1.25-1.25-.69 0-1.25.561-1.25 1.25 0 .69.56 1.25 1.25 1.25zM37.587 9.724a1.256 1.256 0 0 1-.774 2.25c-.265 0-.53-.084-.756-.257a1.256 1.256 0 0 1 .918-2.24c.216.025.428.105.612.247z"/>
        <path d="M41.402 26.832a1.25 1.25 0 0 1 1.696 1.836L31.261 39.606a1.35 1.35 0 0 1-1.818.013L22.414 33.3a1.25 1.25 0 0 1 1.672-1.859l6.248 5.618 11.068-10.227z"/>
    </g>
</svg>
