<?xml version="1.0" encoding="UTF-8"?>
<!DOCTYPE svg PUBLIC "-//W3C//DTD SVG 1.1//EN"
  "http://www.w3.org/Graphics/SVG/1.1/DTD/svg11.dtd">
<!-- Created with Inkpad (http://www.taptrix.com/) --><svg xmlns:inkpad="http://taptrix.com/inkpad/svg_extensions" height="939pt" xmlns:xlink="http://www.w3.org/1999/xlink" xmlns="http://www.w3.org/2000/svg" width="1000pt" version="1.1" viewBox="0,0,1000,939">
<defs/>
<g id="Untitled" inkpad:layerName="Untitled">
<path d="M919.229+142.041C866.865+89.6776+797.541+61.0577+723.554+61.0577C649.566+61.0577+580.031+89.8896+527.667+142.253L500.319+169.601L472.547+141.829C420.184+89.4656+350.436+60.4217+276.448+60.4217C202.673+60.4217+133.137+89.2536+80.9857+141.405C28.622+193.769-0.209852+263.305+0.00214308+337.292C0.00214308+411.28+29.046+480.603+81.4097+532.967L479.543+931.1C485.055+936.612+492.475+939.58+499.683+939.58C506.891+939.58+514.311+936.824+519.823+931.312L918.805+533.815C971.168+481.451+1000+411.916+1000+337.928C1000.21+263.941+971.592+194.405+919.229+142.041ZM878.525+493.323L499.683+870.681L121.689+492.687C80.1376+451.135+57.2418+396.016+57.2418+337.292C57.2418+278.568+79.9256+223.449+121.477+182.109C162.817+140.769+217.937+117.873+276.448+117.873C335.172+117.873+390.504+140.769+432.055+182.321L479.967+230.233C491.203+241.469+509.223+241.469+520.459+230.233L567.947+182.745C609.498+141.193+664.83+118.297+723.342+118.297C781.853+118.297+836.973+141.193+878.525+182.533C920.077+224.085+942.76+279.204+942.76+337.928C942.972+396.652+920.077+451.771+878.525+493.323Z" opacity="1" fill="#000000"/>
</g>
</svg>
