<svg xmlns="http://www.w3.org/2000/svg" data-name="Слой 1" width="74" height="32" style=""><rect id="backgroundrect" width="100%" height="100%" x="0" y="0" fill="none" stroke="none"/><defs><style>.cls-1{fill:#231f20;}</style></defs><title>Монтажная область 1</title><g class="currentLayer" style=""><title>Layer 1</title><path class="cls-1" d="M5.209056854248047,29.290000076293943 l-0.7200000000000001,-0.28 c-0.44000000000000006,-0.16000000000000003 -0.7300000000000001,-0.29000000000000004 -0.7300000000000001,-0.5900000000000001 s0.4,-0.49000000000000005 0.77,-0.49000000000000005 a1.6,1.6 0 0 1 1.05,0.38000000000000006 l0.09000000000000002,0.08000000000000002 l0.54,-0.6000000000000001 l-0.09000000000000002,-0.08000000000000002 a2.36,2.36 0 0 0 -1.59,-0.6000000000000001 c-1,0 -1.75,0.5800000000000001 -1.75,1.35 c0,0.5800000000000001 0.37000000000000005,1 1.1,1.29 l0.7200000000000001,0.29000000000000004 c0.48000000000000004,0.18000000000000002 0.7400000000000001,0.30000000000000004 0.7400000000000001,0.6300000000000001 s-0.33000000000000007,0.56 -0.8700000000000001,0.56 A1.9300000000000002,1.9300000000000002 0 0 1 3.209056854248047,30.720000076293942 l-0.09000000000000002,-0.08000000000000002 l-0.6000000000000001,0.6200000000000001 l0.1,0.09000000000000002 a2.73,2.73 0 0 0 1.86,0.7000000000000001 c1.11,0 1.8800000000000001,-0.5900000000000001 1.8800000000000001,-1.4300000000000002 A1.4300000000000002,1.4300000000000002 0 0 0 5.209056854248047,29.290000076293943 z" id="svg_1"/><polygon class="cls-1" points="7.7990570068359375,27.989999771118164 9.299057006835938,27.989999771118164 9.299057006835938,31.969999313354492 10.279056549072266,31.969999313354492 10.279056549072266,27.989999771118164 11.779056549072266,27.989999771118164 11.779056549072266,27.190000534057617 7.7990570068359375,27.190000534057617 7.7990570068359375,27.989999771118164 " id="svg_2"/><path class="cls-1" d="M13.40905685424805,30.860000076293943 a0.6000000000000001,0.6000000000000001 0 1 0 0.6200000000000001,0.6000000000000001 A0.5900000000000001,0.5900000000000001 0 0 0 13.40905685424805,30.860000076293943 z" id="svg_3"/><path class="cls-1" d="M17.94905685424805,27.170000076293945 H16.329056854248044 V31.970000076293942 h1 V30.220000076293942 h0.6700000000000002 c1.25,0 2,-0.5800000000000001 2,-1.55 S19.29905685424805,27.170000076293945 17.94905685424805,27.170000076293945 zm-0.6400000000000001,0.78 h0.56 c1,0 1.1400000000000001,0.27 1.1400000000000001,0.7000000000000001 s-0.13,0.77 -1.11,0.77 H17.30905685424805 z" id="svg_4"/><polygon class="cls-1" points="23.079055786132812,29.8700008392334 24.959056854248047,29.8700008392334 24.959056854248047,29.079999923706055 23.079055786132812,29.079999923706055 23.079055786132812,27.989999771118164 25.30905532836914,27.989999771118164 25.30905532836914,27.190000534057617 22.109058380126953,27.190000534057617 22.109058380126953,31.969999313354492 25.37905502319336,31.969999313354492 25.37905502319336,31.170000076293945 23.079055786132812,31.170000076293945 23.079055786132812,29.8700008392334 " id="svg_5"/><polygon class="cls-1" points="27.099056243896484,27.989999771118164 28.609058380126953,27.989999771118164 28.609058380126953,31.969999313354492 29.579055786132812,31.969999313354492 29.579055786132812,27.989999771118164 31.08905792236328,27.989999771118164 31.08905792236328,27.190000534057617 27.099056243896484,27.190000534057617 27.099056243896484,27.989999771118164 " id="svg_6"/><polygon class="cls-1" points="34.07905578613281,29.8700008392334 35.949058532714844,29.8700008392334 35.949058532714844,29.079999923706055 34.07905578613281,29.079999923706055 34.07905578613281,27.989999771118164 36.29905700683594,27.989999771118164 36.29905700683594,27.190000534057617 33.099056243896484,27.190000534057617 33.099056243896484,31.969999313354492 36.37905502319336,31.969999313354492 36.37905502319336,31.170000076293945 34.07905578613281,31.170000076293945 34.07905578613281,29.8700008392334 " id="svg_7"/><path class="cls-1" d="M52.79905685424805,29.400000076293942 a1.12,1.12 0 0 0 0.52,-1 c0,-0.5700000000000001 -0.32000000000000006,-1.24 -1.8800000000000001,-1.24 H49.77905685424804 V31.970000076293942 h1.78 c1.28,0 2.05,-0.54 2.05,-1.45 A1.13,1.13 0 0 0 52.79905685424805,29.400000076293942 zm-2,-0.30000000000000004 V27.950000076293946 h0.6100000000000001 c0.8700000000000001,0 1,0.27 1,0.5700000000000001 c0,0.14 0,0.5800000000000001 -1,0.5800000000000001 zm1.8900000000000001,1.3900000000000001 c0,0.48000000000000004 -0.4,0.7200000000000001 -1.18,0.7200000000000001 h-0.7100000000000001 V29.840000076293947 h0.7100000000000001 C52.649056854248045,29.840000076293947 52.649056854248045,30.330000076293942 52.649056854248045,30.490000076293946 z" id="svg_8"/><path class="cls-1" d="M42.20905685424805,28.610000076293943 c0,-0.6500000000000001 -0.3400000000000001,-1.42 -1.92,-1.42 H38.55905685424805 V31.970000076293942 h1 V30.100000076293945 H40.20905685424805 l1.13,1.81 l0,0.06000000000000001 h1.12 L41.20905685424805,29.970000076293942 A1.36,1.36 0 0 0 42.20905685424805,28.610000076293943 zm-1,0 c0,0.18000000000000002 0,0.7200000000000001 -1,0.7200000000000001 h-0.6700000000000002 V27.970000076293942 H40.20905685424805 C41.12905685424805,27.970000076293942 41.259056854248044,28.280000076293945 41.259056854248044,28.610000076293943 z" id="svg_9"/><path class="cls-1" d="M58.679056854248046,29.970000076293942 c0,0.8600000000000001 -0.33000000000000007,1.26 -1,1.26 c-0.43000000000000005,0 -1,-0.13 -1,-1.26 V27.170000076293945 h-1 v2.75 c0,1.3800000000000001 0.6800000000000002,2.11 2,2.11 s2,-0.7300000000000001 2,-2.11 V27.170000076293945 h-0.9400000000000001 z" id="svg_10"/><path class="cls-1" d="M46.57905685424805,29.290000076293943 l-0.7300000000000001,-0.28 c-0.43000000000000005,-0.16000000000000003 -0.7200000000000001,-0.29000000000000004 -0.7200000000000001,-0.5900000000000001 s0.39000000000000007,-0.49000000000000005 0.7600000000000001,-0.49000000000000005 a1.56,1.56 0 0 1 1,0.38000000000000006 l0.09000000000000002,0.08000000000000002 l0.55,-0.6000000000000001 l-0.09000000000000002,-0.08000000000000002 a2.4,2.4 0 0 0 -1.6,-0.6000000000000001 c-1,0 -1.7400000000000002,0.5800000000000001 -1.7400000000000002,1.35 c0,0.5800000000000001 0.37000000000000005,1 1.1,1.29 l0.7100000000000001,0.29000000000000004 c0.49000000000000005,0.18000000000000002 0.7400000000000001,0.30000000000000004 0.7400000000000001,0.6300000000000001 s-0.32000000000000006,0.56 -0.8700000000000001,0.56 a2,2 0 0 1 -1.28,-0.51 l-0.09000000000000002,-0.08000000000000002 l-0.6000000000000001,0.6200000000000001 l0.09000000000000002,0.09000000000000002 a2.7600000000000002,2.7600000000000002 0 0 0 1.87,0.7000000000000001 c1.1,0 1.87,-0.5900000000000001 1.87,-1.4300000000000002 A1.42,1.42 0 0 0 46.57905685424805,29.290000076293943 z" id="svg_11"/><path class="cls-1" d="M65.73905685424805,28.610000076293943 c0,-0.6500000000000001 -0.33000000000000007,-1.42 -1.92,-1.42 H62.07905685424805 V31.970000076293942 h1 V30.100000076293945 h0.6700000000000002 l1.1400000000000001,1.81 l0,0.06000000000000001 H66.00905685424804 l-1.29,-2 A1.36,1.36 0 0 0 65.73905685424805,28.610000076293943 zm-2.6900000000000004,-0.6400000000000001 h0.6800000000000002 c0.92,0 1,0.31000000000000005 1,0.6400000000000001 s0,0.7200000000000001 -1,0.7200000000000001 h-0.6800000000000002 z" id="svg_12"/><path class="cls-1" d="M69.80905685424804,29.340000076293947 V30.170000076293945 h1 v0.92 a1.3900000000000001,1.3900000000000001 0 0 1 -0.7200000000000001,0.18000000000000002 c-1,0 -1.51,-0.6000000000000001 -1.51,-1.6600000000000001 a1.46,1.46 0 0 1 1.49,-1.6400000000000001 a1.37,1.37 0 0 1 1,0.38000000000000006 l0.09000000000000002,0.08000000000000002 l0.56,-0.6000000000000001 l-0.09000000000000002,-0.09000000000000002 a2.26,2.26 0 0 0 -1.56,-0.5900000000000001 a2.34,2.34 0 0 0 -2.47,2.48 a2.29,2.29 0 0 0 2.44,2.46 a2.52,2.52 0 0 0 1.6600000000000001,-0.56 l0,0 V29.340000076293947 z" id="svg_13"/><path class="cls-1" d="M28.929056854248046,17.670000076293945 a1.7200000000000002,1.7200000000000002 0 0 1 -0.8600000000000001,-0.18000000000000002 a1.23,1.23 0 0 1 -0.45,-0.51 a4.49,4.49 0 0 1 -0.13,-1.34 v-8.3 h2.4 V5.660000076293947 h-2.4 V0.8200000762939439 L25.29905685424805,2.1700000762939453 v3.52 H23.54905685424805 v1.6800000000000002 h1.75 v8.17 a8.49,8.49 0 0 0 0.28,2.77 a2.26,2.26 0 0 0 1,1 a3.94,3.94 0 0 0 2,0.4 a9.29,9.29 0 0 0 1.7000000000000002,-0.19000000000000003 l-0.32000000000000006,-1.94 A6.57,6.57 0 0 1 28.929056854248046,17.670000076293945 z" id="svg_14"/><polygon class="cls-1" points="56.73905563354492,5.660001754760742 53.909053802490234,5.660001754760742 48.159053802490234,11.500001907348633 48.159053802490234,0.31999969482421875 45.94905471801758,0.31999969482421875 45.94905471801758,19.53999900817871 48.159053802490234,19.53999900817871 48.159053802490234,14.019998550415039 49.93906021118164,12.30000114440918 54.60905838012695,19.53999900817871 57.339054107666016,19.53999900817871 51.47905349731445,10.769998550415039 56.73905563354492,5.660001754760742 " id="svg_15"/><rect class="cls-1" x="59.48905563354492" y="5.660001754760742" width="2.2100000381469727" height="13.869999885559082" id="svg_16"/><path class="cls-1" d="M33.20905685424805,18.730000076293948 a6.6,6.6 0 0 0 4.13,1.12 a7.28,7.28 0 0 0 2.92,-0.56 a4.46,4.46 0 0 0 2,-1.6 a4,4 0 0 0 0.6800000000000002,-2.19 a3.25,3.25 0 0 0 -2.09,-3.21 A26.2,26.2 0 0 0 37.329056854248044,11.170000076293945 c-1.1,-0.30000000000000004 -1.85,-0.52 -2.11,-0.6100000000000001 a2.15,2.15 0 0 1 -0.9500000000000001,-0.6700000000000002 a1.3900000000000001,1.3900000000000001 0 0 1 -0.31000000000000005,-0.8800000000000001 a1.6500000000000001,1.6500000000000001 0 0 1 0.7400000000000001,-1.34 A4,4 0 0 1 37.08905685424805,7.170000076293945 a3.43,3.43 0 0 1 2.2,0.6300000000000001 A2.62,2.62 0 0 1 40.20905685424805,9.420000076293945 l2.16,-0.30000000000000004 a5.05,5.05 0 0 0 -0.79,-2.05 a4,4 0 0 0 -1.81,-1.26 a8.18,8.18 0 0 0 -2.87,-0.47000000000000003 a7.45,7.45 0 0 0 -2,0.28 a5.39,5.39 0 0 0 -1.48,0.6800000000000002 A3.8,3.8 0 0 0 32.20905685424805,7.610000076293943 a3.5300000000000002,3.5300000000000002 0 0 0 -0.42000000000000004,1.6900000000000002 A3.45,3.45 0 0 0 32.33905685424805,11.170000076293945 a3.51,3.51 0 0 0 1.5,1.31 a22.71,22.71 0 0 0 3.6100000000000003,1.1400000000000001 a10.52,10.52 0 0 1 2.47,0.81 a1.55,1.55 0 0 1 0.7400000000000001,1.35 a2.08,2.08 0 0 1 -0.8300000000000001,1.6300000000000001 a3.79,3.79 0 0 1 -2.49,0.6900000000000002 a4,4 0 0 1 -2.59,-0.77 a3.39,3.39 0 0 1 -1.13,-2.23 l-2.18,0.3400000000000001 A5.2,5.2 0 0 0 33.20905685424805,18.730000076293948 z" id="svg_17"/><rect class="cls-1" x="71.45905685424805" y="0.31999969482421875" width="2.200000047683716" height="19.219999313354492" id="svg_18"/><path class="cls-1" d="M11.97905685424805,13.730000076293948 V10.560000076293946 a13.26,13.26 0 0 0 -0.12000000000000001,-2.18 a3.72,3.72 0 0 0 -0.7200000000000001,-1.58 a3.79,3.79 0 0 0 -1.62,-1 a8.41,8.41 0 0 0 -2.89,-0.42000000000000004 a9.53,9.53 0 0 0 -3.16,0.49000000000000005 a4.59,4.59 0 0 0 -2.07,1.3900000000000001 a5.76,5.76 0 0 0 -1,2.29 l2.15,0.29000000000000004 a3.75,3.75 0 0 1 1.2,-2.06 a4.3100000000000005,4.3100000000000005 0 0 1 2.5300000000000002,-0.6000000000000001 a4,4 0 0 1 2.77,0.8300000000000001 a2.71,2.71 0 0 1 0.7100000000000001,2.12 c0,0.08000000000000002 0,0.29000000000000004 0,0.6200000000000001 v0.06000000000000001 l-0.05000000000000001,0 a21.39,21.39 0 0 1 -4.27,0.8200000000000001 a15.44,15.44 0 0 0 -2.1,0.36000000000000004 a5.66,5.66 0 0 0 -1.6900000000000002,0.77 a3.67,3.67 0 0 0 -1.2,1.33 A3.93,3.93 0 0 0 1.2090568542480469,18.750000076293944 a5.08,5.08 0 0 0 3.5,1.1 a7.44,7.44 0 0 0 2.6,-0.45 a9,9 0 0 0 2.52,-1.58 l0.13,-0.1 v0.16000000000000003 a4.94,4.94 0 0 0 0.44000000000000006,1.6600000000000001 h2.29 a5.35,5.35 0 0 1 -0.54,-1.59 A34.21,34.21 0 0 1 11.97905685424805,13.730000076293948 zm-2.24,-0.28 a5.79,5.79 0 0 1 -0.39000000000000007,2.41 a3.8,3.8 0 0 1 -1.61,1.6900000000000002 A5.07,5.07 0 0 1 5.209056854248047,18.170000076293945 a3.25,3.25 0 0 1 -2.17,-0.6500000000000001 a2.18,2.18 0 0 1 -0.7500000000000001,-1.6600000000000001 a2.09,2.09 0 0 1 0.35000000000000003,-1.17 a2,2 0 0 1 1,-0.81 a8.76,8.76 0 0 1 2.1,-0.48000000000000004 a17.1,17.1 0 0 0 3.8600000000000003,-0.9 l0.12000000000000001,0 z" id="svg_19"/><rect class="cls-1" x="65.44905471801758" y="0.31999969482421875" width="2.2100000381469727" height="19.219999313354492" id="svg_20"/><path class="cls-1" d="M18.739056854248048,5.800000076293948 A5.8,5.8 0 0 0 17.209056854248047,7.740000076293946 l-0.16000000000000003,0.30000000000000004 V5.660000076293947 h-2 V19.540000076293943 h2.2 V12.270000076293947 a9.26,9.26 0 0 1 0.41000000000000003,-2.81 A2.62,2.62 0 0 1 18.639056854248047,8.170000076293945 a2.34,2.34 0 0 1 1.46,-0.49000000000000005 a3.2800000000000002,3.2800000000000002 0 0 1 1.55,0.4 V5.620000076293948 A3.92,3.92 0 0 0 20.209056854248047,5.340000076293947 A2.6100000000000003,2.6100000000000003 0 0 0 18.739056854248048,5.800000076293948 z" id="svg_21"/><path class="cls-1" d="M60.62905685424805,7.629394360719743e-8 a1.52,1.52 0 1 0 1.52,1.52 A1.52,1.52 0 0 0 60.62905685424805,7.629394360719743e-8 z" id="svg_22"/></g></svg>