<svg xmlns="http://www.w3.org/2000/svg" width="87" height="26" viewBox="0 0 87 26">
    <g fill="none" fill-rule="evenodd">
        <path fill="#FFF" d="M-40-19h1440v1543H-40z"/>
        <g fill="#1C1C17">
            <path d="M4.971 21.795l80.505 2.216-.9.36-1.042.416-1.22.004H.966c1.196-.82 2.924-2.323 4.005-2.996M16.642 17.146c-.784.663-1.538 1.13-2.258 1.405a6.61 6.61 0 0 1-2.33.407c-1.37 0-2.42-.332-3.155-.998-.734-.666-1.102-1.52-1.102-2.554 0-.61.136-1.165.416-1.668a3.436 3.436 0 0 1 1.09-1.21 5.226 5.226 0 0 1 1.521-.69c.413-.108 1.038-.215 1.875-.314 1.705-.205 2.963-.444 3.768-.727.008-.288.011-.471.011-.548 0-.858-.2-1.464-.6-1.811-.537-.479-1.341-.714-2.403-.714-.993 0-1.726.171-2.203.518-.472.348-.82.962-1.049 1.844l-2.062-.284c.188-.877.497-1.592.926-2.131.427-.543 1.052-.961 1.865-1.253.813-.291 1.754-.438 2.827-.438 1.065 0 1.926.128 2.591.374.664.252 1.154.563 1.47.942.312.38.528.854.656 1.433.068.36.105 1.006.105 1.94v2.805c0 1.96.043 3.197.136 3.712a4.66 4.66 0 0 0 .532 1.493h-2.206a4.449 4.449 0 0 1-.42-1.533zm-.175-4.701c-.77.315-1.919.58-3.448.797-.87.125-1.486.264-1.843.42-.36.155-.64.384-.832.687-.197.298-.296.63-.296.997 0 .563.215 1.03.64 1.405.425.371 1.049.559 1.87.559.813 0 1.537-.176 2.17-.53.633-.356 1.102-.843 1.398-1.458.228-.475.34-1.177.34-2.104v-.773zm4.765 6.234V6.263h1.9v1.88c.483-.878.931-1.462 1.344-1.74.408-.28.861-.423 1.353-.423.446 0 .895.089 1.349.265l-.003 2.313c-.48-.27-.965-.404-1.45-.404-.463 0-.876.14-1.245.415-.368.28-.629.663-.785 1.153-.236.747-.352 1.566-.352 2.455v6.502h-2.11zm13.255-1.885l.302 1.861a7.908 7.908 0 0 1-1.592.187c-.77 0-1.362-.12-1.787-.363-.42-.239-.717-.559-.889-.953-.172-.392-.26-1.222-.26-2.484V7.9h-1.55V6.263h1.55V3.186l2.102-1.261v4.338h2.124V7.9h-2.124v7.259c0 .602.037.985.109 1.157a.903.903 0 0 0 .365.411c.167.1.408.152.72.152.236 0 .544-.029.93-.085zm1.22-1.822l2.085-.328c.117.834.445 1.473.982 1.92.533.442 1.282.666 2.246.666.97 0 1.69-.2 2.16-.591.467-.395.704-.857.704-1.384 0-.48-.21-.85-.625-1.126-.288-.188-1.01-.423-2.158-.71-1.546-.391-2.623-.726-3.22-1.014-.597-.284-1.053-.68-1.361-1.182a3.121 3.121 0 0 1-.465-1.664c0-.554.129-1.065.385-1.536a3.35 3.35 0 0 1 1.037-1.177c.328-.24.778-.447 1.342-.615a6.411 6.411 0 0 1 1.825-.251c.977 0 1.834.142 2.576.422.74.28 1.285.659 1.636 1.138.353.483.594 1.122.726 1.923l-2.063.283c-.096-.637-.368-1.137-.815-1.496-.45-.358-1.087-.538-1.908-.538-.968 0-1.662.159-2.074.479-.416.319-.625.694-.625 1.121 0 .276.089.519.26.738.173.228.441.41.81.563.211.076.833.256 1.866.535 1.493.4 2.534.722 3.122.978.594.251 1.059.622 1.395 1.105.336.483.504 1.082.504 1.8 0 .703-.207 1.361-.617 1.983-.413.62-1.005 1.098-1.777 1.438-.773.338-1.65.506-2.627.506-1.623 0-2.855-.335-3.704-1.006-.85-.67-1.39-1.664-1.622-2.98zm12.866 3.707V1.537h2.114v9.775l4.998-5.049h2.73l-4.76 4.606 5.245 7.81h-2.607l-4.117-6.35-1.49 1.429v4.921h-2.113zm12.013 0H62.7V6.263h-2.114v12.416zm5.281 0h2.111V1.537h-2.11V18.68zm5.338 0h2.11V1.537h-2.11V18.68zM61.673 1.254c.788 0 1.427.637 1.427 1.423 0 .785-.639 1.422-1.427 1.422a1.424 1.424 0 0 1-1.426-1.422c0-.786.639-1.423 1.426-1.423"/>
        </g>
    </g>
</svg>
