<svg xmlns="http://www.w3.org/2000/svg" width="24" height="24" viewBox="0 0 24 24">
    <g fill="none" fill-rule="evenodd">
        <path fill="#FFF" d="M-199-526h1440V880H-199z"/>
        <path fill="#000" d="M12 5c-4.273 0-7.75 3.478-7.75 7.75 0 4.274 3.477 7.75 7.75 7.75s7.75-3.477 7.75-7.75C19.75 8.478 16.274 5 12 5zm6.61 7.75a6.586 6.586 0 0 1-1.37 4.021c-.242-.19-.499-.7-.257-1.23.244-.532.309-1.766.253-2.246-.054-.479-.302-1.635-.98-1.647-.677-.01-1.14-.234-1.542-1.036-.835-1.669 1.565-1.99.73-2.915-.233-.26-1.44 1.07-1.616-.701-.011-.125.11-.315.27-.511 2.62.88 4.512 3.355 4.512 6.265zm-7.518-6.544c-.158.307-.575.433-.83.664-.552.5-.789.43-1.086.91-.3.48-1.265 1.171-1.265 1.518 0 .346.488.756.73.676.245-.08.888-.076 1.266.057s3.16.267 2.274 2.618c-.281.748-1.512.621-1.84 1.86-.05.18-.22.957-.231 1.21-.02.393.278 1.872-.1 1.872-.381 0-1.404-1.323-1.404-1.562 0-.24-.265-1.08-.265-1.8s-1.224-.71-1.224-1.666c0-.864.664-1.292.514-1.706-.146-.412-1.312-.427-1.8-.476a6.63 6.63 0 0 1 5.26-4.175zm-1.17 12.817c.396-.21.437-.48.797-.495.412-.02.747-.161 1.21-.263.413-.09 1.149-.508 1.799-.562.546-.044 1.626.029 1.917.557a6.568 6.568 0 0 1-5.723.763z"/>
    </g>
</svg>
