<svg xmlns="http://www.w3.org/2000/svg" width="40" height="40" viewBox="0 0 40 40">
    <g fill="none" fill-rule="evenodd">
        <path fill="#FFF" d="M-1178-12H262v1543h-1440z"/>
        <path fill="#3C3D41" stroke="#3C3D41" stroke-width=".2" d="M22.775 20.596C25.843 21.698 28.035 24.592 28 28l-1.642-.045c0-3.426-2.827-6.188-6.335-6.188S13.688 24.53 13.642 28L12 27.955c0-3.372 2.2-6.259 5.27-7.36-1.255-.854-2.08-2.273-2.08-3.875 0-2.6 2.171-4.72 4.833-4.72 2.661 0 4.832 2.12 4.832 4.72 0 1.602-.824 3.022-2.08 3.876zm-2.752-6.948c-1.744 0-3.145 1.368-3.145 3.072 0 1.703 1.4 3.07 3.145 3.07 1.744 0 3.144-1.367 3.144-3.07 0-1.704-1.4-3.072-3.144-3.072z"/>
    </g>
</svg>
